REM DIRINDEX 1\2,1\3,1\4,1\5
REM DIRNAME folder01,folder02,folder03,folder04,folder05
TITLE ""
FILE "1Q_t_1450-1459.mp3" MP3
  TRACK 01 AUDIO
    TITLE "3:cjc004_5256"
    INDEX 01 00:00:00
  TRACK 02 AUDIO
    TITLE "0:"
    INDEX 01 00:00:72
  TRACK 03 AUDIO
    TITLE "4:cjc004_5257"
    INDEX 01 00:01:28
  TRACK 04 AUDIO
    TITLE "0:"
    INDEX 01 00:02:61
  TRACK 05 AUDIO
    TITLE "5:cjc004_5258"
    INDEX 01 00:03:12
  TRACK 06 AUDIO
    TITLE "0:"
    INDEX 01 00:06:57
  TRACK 07 AUDIO
    TITLE "3:cjc004_5259"
    INDEX 01 00:07:39
  TRACK 08 AUDIO
    TITLE "0:"
    INDEX 01 00:08:52
  TRACK 09 AUDIO
    TITLE "4:cjc004_5260"
    INDEX 01 00:09:06
  TRACK 10 AUDIO
    TITLE "0:"
    INDEX 01 00:10:37
  TRACK 11 AUDIO
    TITLE "5:cjc004_5261"
    INDEX 01 00:10:65
  TRACK 12 AUDIO
    TITLE "0:"
    INDEX 01 00:15:40
  TRACK 13 AUDIO
    TITLE "3:cjc004_5262"
    INDEX 01 00:16:18
  TRACK 14 AUDIO
    TITLE "0:"
    INDEX 01 00:17:31
  TRACK 15 AUDIO
    TITLE "4:cjc004_5263"
    INDEX 01 00:17:59
  TRACK 16 AUDIO
    TITLE "0:"
    INDEX 01 00:19:40
  TRACK 17 AUDIO
    TITLE "5:cjc004_5264"
    INDEX 01 00:19:67
  TRACK 18 AUDIO
    TITLE "0:"
    INDEX 01 00:24:06
  TRACK 19 AUDIO
    TITLE "3:cjc004_5265"
    INDEX 01 00:24:63
  TRACK 20 AUDIO
    TITLE "0:"
    INDEX 01 00:25:64
  TRACK 21 AUDIO
    TITLE "4:cjc004_5266"
    INDEX 01 00:26:20
  TRACK 22 AUDIO
    TITLE "0:"
    INDEX 01 00:27:22
  TRACK 23 AUDIO
    TITLE "5:cjc004_5267"
    INDEX 01 00:27:49
  TRACK 24 AUDIO
    TITLE "0:"
    INDEX 01 00:32:01
  TRACK 25 AUDIO
    TITLE "3:cjc004_5268"
    INDEX 01 00:32:54
  TRACK 26 AUDIO
    TITLE "0:"
    INDEX 01 00:34:00
  TRACK 27 AUDIO
    TITLE "4:cjc004_5269"
    INDEX 01 00:34:34
  TRACK 28 AUDIO
    TITLE "0:"
    INDEX 01 00:36:31
  TRACK 29 AUDIO
    TITLE "5:cjc004_5270"
    INDEX 01 00:36:54
  TRACK 30 AUDIO
    TITLE "0:"
    INDEX 01 00:41:73
  TRACK 31 AUDIO
    TITLE "3:cjc004_5271"
    INDEX 01 00:42:49
  TRACK 32 AUDIO
    TITLE "0:"
    INDEX 01 00:43:46
  TRACK 33 AUDIO
    TITLE "4:cjc004_5272"
    INDEX 01 00:44:01
  TRACK 34 AUDIO
    TITLE "0:"
    INDEX 01 00:45:35
  TRACK 35 AUDIO
    TITLE "5:cjc004_5273"
    INDEX 01 00:45:61
  TRACK 36 AUDIO
    TITLE "0:"
    INDEX 01 00:50:31
  TRACK 37 AUDIO
    TITLE "3:cjc004_5274"
    INDEX 01 00:51:07
  TRACK 38 AUDIO
    TITLE "0:"
    INDEX 01 00:52:18
  TRACK 39 AUDIO
    TITLE "4:cjc004_5275"
    INDEX 01 00:52:49
  TRACK 40 AUDIO
    TITLE "0:"
    INDEX 01 00:54:38
  TRACK 41 AUDIO
    TITLE "5:cjc004_5276"
    INDEX 01 00:54:64
  TRACK 42 AUDIO
    TITLE "0:"
    INDEX 01 00:59:00
  TRACK 43 AUDIO
    TITLE "3:cjc004_5277"
    INDEX 01 00:59:63
  TRACK 44 AUDIO
    TITLE "0:"
    INDEX 01 01:00:66
  TRACK 45 AUDIO
    TITLE "4:cjc004_5278"
    INDEX 01 01:01:23
  TRACK 46 AUDIO
    TITLE "0:"
    INDEX 01 01:02:46
  TRACK 47 AUDIO
    TITLE "5:cjc004_5279"
    INDEX 01 01:02:71
  TRACK 48 AUDIO
    TITLE "0:"
    INDEX 01 01:06:40
  TRACK 49 AUDIO
    TITLE "3:cjc004_5280"
    INDEX 01 01:07:23
  TRACK 50 AUDIO
    TITLE "0:"
    INDEX 01 01:08:42
  TRACK 51 AUDIO
    TITLE "4:cjc004_5281"
    INDEX 01 01:08:68
  TRACK 52 AUDIO
    TITLE "0:"
    INDEX 01 01:10:30
  TRACK 53 AUDIO
    TITLE "5:cjc004_5282"
    INDEX 01 01:10:59
  TRACK 54 AUDIO
    TITLE "0:"
    INDEX 01 01:16:42
  TRACK 55 AUDIO
    TITLE "3:cjc004_5283"
    INDEX 01 01:17:28
  TRACK 56 AUDIO
    TITLE "0:"
    INDEX 01 01:18:37
  TRACK 57 AUDIO
    TITLE "4:cjc004_5284"
    INDEX 01 01:18:64
  TRACK 58 AUDIO
    TITLE "0:"
    INDEX 01 01:19:70
  TRACK 59 AUDIO
    TITLE "5:cjc004_5285"
    INDEX 01 01:20:16
  TRACK 60 AUDIO
    TITLE "0:"
    INDEX 01 01:24:18
